Coordinates
version=1
nRows=17
nColumns=40
inDegrees=yes

Units are S.I. units (second, meters, Newtons, ...)
Angles are in degrees.

endheader
time	pelvis_tilt	pelvis_list	pelvis_rotation	pelvis_tx	pelvis_ty	pelvis_tz	hip_flexion_r	hip_adduction_r	hip_rotation_r	knee_angle_r	knee_angle_r_beta	ankle_angle_r	subtalar_angle_r	mtp_angle_r	hip_flexion_l	hip_adduction_l	hip_rotation_l	knee_angle_l	knee_angle_l_beta	ankle_angle_l	subtalar_angle_l	mtp_angle_l	lumbar_extension	lumbar_bending	lumbar_rotation	arm_flex_r	arm_add_r	arm_rot_r	elbow_flex_r	pro_sup_r	wrist_flex_r	wrist_dev_r	arm_flex_l	arm_add_l	arm_rot_l	elbow_flex_l	pro_sup_l	wrist_flex_l	wrist_dev_l
     19.68000000	     -5.32911486	     -4.32407669	     -3.18897895	      0.79565086	      0.93099134	      0.46170404	     32.29735160	     -3.71948179	     -5.07943813	     59.71839602	     59.71839602	      0.24366893	    -15.77797550	      0.81165166	     14.15964008	     -4.76821071	     -7.61979929	     21.54748666	     21.54748666	     14.55533391	    -10.77907244	      1.21618336	    -10.90365111	      6.35828848	      1.82622965	      4.45297814	    -12.53386785	     -4.83879238	     25.55130353	     46.73236337	      0.00000000	      0.00000000	     19.57137268	    -16.61972621	     -5.19127117	     55.01452399	     46.62277197	      0.00000000	      0.00000000
     19.69285714	     -5.54970044	     -4.40266748	     -3.36965978	      0.79486120	      0.93118279	      0.46187644	     32.90602193	     -3.38568948	     -5.32508083	     57.27391905	     57.27391905	      0.40432624	    -15.11214854	      0.88455018	     13.69357478	     -4.83610036	     -7.77596848	     21.03794538	     21.03794538	     14.71270771	    -10.65239777	      1.22867678	    -10.77312909	      6.52787297	      1.46281483	      2.80223488	    -12.52624509	     -4.84828505	     24.86568820	     46.74626946	      0.00000000	      0.00000000	     20.46661500	    -17.25057785	     -5.51541527	     55.65895335	     46.66884360	      0.00000000	      0.00000000
     19.70571429	     -5.68453620	     -4.50793188	     -3.54581197	      0.79422014	      0.93147810	      0.46211762	     33.19513534	     -3.04229534	     -5.63704624	     54.35919292	     54.35919292	      0.59859943	    -14.18645387	      0.87308904	     13.06163657	     -4.92906831	     -7.96985587	     20.41450234	     20.41450234	     14.88015476	    -10.39062600	      1.19846660	    -10.73624210	      6.71652699	      1.42771323	      1.08660610	    -12.61109404	     -4.85859578	     24.15885876	     46.76068021	      0.00000000	      0.00000000	     21.37556841	    -17.57749951	     -5.87630403	     56.71596758	     46.72379200	      0.00000000	      0.00000000
     19.71857143	     -5.72344638	     -4.52825469	     -3.77353435	      0.79362664	      0.93177937	      0.46256060	     33.24371964	     -2.78483806	     -5.95157267	     51.10961339	     51.10961339	      0.77913837	    -13.02609145	      0.55297348	     12.32296196	     -4.96529484	     -8.33841279	     19.81264958	     19.81264958	     15.02515179	    -10.00889054	      1.02113191	    -10.89764381	      6.74855069	      1.66420421	     -0.68119221	    -12.76062376	     -4.91404048	     23.61347368	     46.77061353	      0.00000000	      0.00000000	     22.20086297	    -17.64799471	     -6.37950440	     58.41800906	     46.80056269	      0.00000000	      0.00000000
     19.73142857	     -5.94639698	     -4.55524125	     -3.95700232	      0.79295350	      0.93159849	      0.46318650	     33.32031139	     -2.46830025	     -6.28386394	     47.47411010	     47.47411010	      0.44254214	    -12.10828687	     -1.26629351	     11.85287372	     -5.05073863	     -8.75645060	     19.30253081	     19.30253081	     15.02498780	     -9.59135010	      0.29716922	    -10.87772921	      6.80316962	      1.33671726	     -2.50107407	    -12.77419617	     -5.23669470	     24.17995615	     46.74644608	      0.00000000	      0.00000000	     22.15490884	    -18.08888953	     -7.62727944	     61.36410028	     46.96435697	      0.00000000	      0.00000000
     19.74428571	     -6.17711946	     -4.61785476	     -4.11392443	      0.79231202	      0.93141653	      0.46394523	     33.26146190	     -2.09640743	     -6.67856381	     43.62240014	     43.62240014	      0.74089475	    -10.71571325	     -1.23029725	     11.39572218	     -5.12804930	     -8.89017384	     18.80520066	     18.80520066	     15.20577105	     -9.44502492	      0.21336535	    -10.76586813	      6.91095850	      1.16168495	     -3.94644734	    -12.80866926	     -5.26025359	     23.74155676	     46.75207577	      0.00000000	      0.00000000	     22.84447017	    -18.50168884	     -7.93158249	     62.14627401	     47.00897238	      0.00000000	      0.00000000
     19.75714286	     -6.31580865	     -4.60973995	     -4.28677618	      0.79184164	      0.93119797	      0.46483881	     32.96148391	     -1.81372207	     -7.16018293	     39.56856599	     39.56856599	      1.07554499	     -8.89299433	     -1.44240332	     10.81008457	     -5.14712347	     -9.17999670	     18.28127520	     18.28127520	     15.36227576	     -9.15865505	      0.00313124	    -10.79246528	      6.92586286	      1.21582765	     -5.50130059	    -12.83474182	     -5.35275567	     23.54511567	     46.75060959	      0.00000000	      0.00000000	     23.46075829	    -18.74611226	     -8.32135722	     63.47889366	     47.06939615	      0.00000000	      0.00000000
     19.77000000	     -6.54138547	     -4.54217375	     -4.48185254	      0.79144954	      0.93067219	      0.46594794	     32.60621698	     -1.54485529	     -7.71098796	     35.30464919	     35.30464919	      1.07421049	     -6.97663117	     -2.43090529	     10.31348363	     -5.14172552	     -9.59451241	     17.75326669	     17.75326669	     15.41525041	     -8.76151506	     -0.67603412	    -10.75295706	      6.85228176	      1.09121827	     -7.27348899	    -12.83836345	     -5.77705721	     24.45222111	     46.71918373	      0.00000000	      0.00000000	     23.46227845	    -19.06469545	     -9.07301356	     65.84331263	     47.18183454	      0.00000000	      0.00000000
     19.78285714	     -6.71661348	     -4.55474543	     -4.59967549	      0.79121123	      0.93016068	      0.46710229	     32.03709743	     -1.11849879	     -8.17986143	     30.95680713	     30.95680713	      1.36422453	     -5.13983782	     -2.03092148	      9.81757275	     -5.18679732	     -9.73812304	     17.34024764	     17.34024764	     15.60605890	     -8.61348720	     -0.85701239	    -10.67830608	      6.91314236	      0.97335135	     -8.52931456	    -12.82120218	     -5.86246856	     24.25871370	     46.72002583	      0.00000000	      0.00000000	     23.92416570	    -19.36329134	     -9.30378385	     66.63972232	     47.21975824	      0.00000000	      0.00000000
     19.79571429	     -6.87664293	     -4.46810631	     -4.75172111	      0.79119046	      0.92946017	      0.46848056	     31.38892295	     -0.77400082	     -8.73067577	     26.73077599	     26.73077599	      1.71221637	     -2.99721111	     -1.46369557	      9.26985784	     -5.14256301	     -9.98302644	     16.89252952	     16.89252952	     15.81461746	     -8.35761269	     -1.12959582	    -10.58505822	      6.81863583	      0.96287042	     -9.78994484	    -12.74146755	     -5.99823112	     24.22328668	     46.71746950	      0.00000000	      0.00000000	     24.28714663	    -19.58919939	     -9.53360931	     67.66896312	     47.26080186	      0.00000000	      0.00000000
     19.80857143	     -6.97369107	     -4.34435953	     -4.86979887	      0.79136789	      0.92868279	      0.46992573	     30.65021807	     -0.48186266	     -9.36805681	     22.77411608	     22.77411608	      2.06504022	     -0.71320844	     -0.56819137	      8.64550077	     -5.05987436	    -10.25939480	     16.44548022	     16.44548022	     15.99883864	     -8.02736587	     -1.48712844	    -10.60820436	      6.71504385	      0.95304176	    -11.01048835	    -12.63960906	     -6.20101139	     24.37753711	     46.71174241	      0.00000000	      0.00000000	     24.50008795	    -19.77287925	     -9.74833768	     68.83263225	     47.30282203	      0.00000000	      0.00000000
     19.82142857	     -7.00638826	     -4.14629111	     -5.00640638	      0.79184268	      0.92774846	      0.47151365	     29.94221611	     -0.29551063	    -10.17088017	     19.40384804	     19.40384804	      2.57605250	      1.61372209	      0.92152113	      7.92781755	     -4.90345510	    -10.63576712	     15.98839957	     15.98839957	     16.19403722	     -7.66942086	     -2.02211811	    -10.63451151	      6.48705179	      0.94401388	    -12.16120507	    -12.48166334	     -6.52891680	     24.87345222	     46.69980337	      0.00000000	      0.00000000	     24.53604246	    -19.98093595	     -9.98108503	     70.20935977	     47.35193895	      0.00000000	      0.00000000
     19.83428571	     -7.10536107	     -3.96434667	     -5.10420186	      0.79238091	      0.92662794	      0.47317299	     29.52489079	     -0.15213685	    -11.07784462	     16.93656435	     16.93656435	      3.95552426	      3.82402883	      5.05708900	      7.30288382	     -4.76653857	    -10.90350951	     15.54353916	     15.54353916	     16.15887718	     -7.44452812	     -3.08075360	    -10.59789765	      6.29167281	      0.75540634	    -13.37348491	    -12.32767362	     -7.40034001	     26.34400144	     46.67387159	      0.00000000	      0.00000000	     24.12146633	    -20.24824324	    -10.33751277	     72.03554778	     47.44011941	      0.00000000	      0.00000000
     19.84714286	     -7.17056187	     -3.82723814	     -5.17786751	      0.79324714	      0.92549146	      0.47503039	     28.94319166	      0.13597575	    -11.62806579	     14.59638378	     14.59638378	      4.04237180	      4.90208307	      6.01082331	      6.61253130	     -4.65893384	    -11.03061061	     15.11284768	     15.11284768	     16.45049974	     -7.28082992	     -3.21962026	    -10.46715262	      6.18667502	      0.79477332	    -14.11356018	    -12.18420548	     -7.46738110	     26.16694315	     46.67538863	      0.00000000	      0.00000000	     24.18394637	    -20.25063863	    -10.35027125	     72.39017772	     47.45374457	      0.00000000	      0.00000000
     19.86000000	     -7.30598199	     -3.61253669	     -5.25868814	      0.79420985	      0.92413652	      0.47693616	     28.61763563	      0.28433512	    -12.11691699	     13.02415316	     13.02415316	      4.03038747	      5.67079835	      6.66610129	      6.02873020	     -4.48243992	    -11.17260362	     14.74531635	     14.74531635	     16.78446233	     -7.09720531	     -3.36312336	    -10.23589154	      6.01527532	      0.79989131	    -14.64634492	    -11.96741019	     -7.51395376	     26.11314585	     46.67304399	      0.00000000	      0.00000000	     24.13702792	    -20.24005939	    -10.33085147	     72.72573590	     47.46161334	      0.00000000	      0.00000000
     19.87285714	     -7.27332732	     -3.51406004	     -5.31298483	      0.79547641	      0.92306698	      0.47894607	     28.20267667	      0.41855009	    -12.97776080	     12.14392760	     12.14392760	      4.15071504	      6.56555465	      7.71259436	      5.20199021	     -4.42878119	    -11.37022194	     14.32247086	     14.32247086	     17.12097257	     -6.72854767	     -3.49357125	    -10.19666147	      5.92921990	      0.82467654	    -15.12064707	    -11.84731111	     -7.78618556	     26.44570015	     46.66281202	      0.00000000	      0.00000000	     23.78215447	    -20.23689475	    -10.21438624	     73.45824319	     47.48613536	      0.00000000	      0.00000000
     19.88571429	     -7.37873217	     -3.37322486	     -5.37254631	      0.79663525	      0.92158418	      0.48109311	     28.20537279	      0.49876864	    -13.29229296	     12.08431915	     12.08431915	      4.00660296	      6.40439493	      7.77329743	      4.75866708	     -4.37808919	    -11.42336111	     14.32717871	     14.32717871	     17.48615595	     -6.83193408	     -3.60752198	     -9.95297185	      5.83263448	      0.81920698	    -15.18889529	    -11.77433672	     -7.78235764	     26.43152969	     46.66209205	      0.00000000	      0.00000000	     23.70346685	    -20.20738103	    -10.20478932	     73.45349933	     47.48521967	      0.00000000	      0.00000000
